# xmcd CD database file
#
# Track frame offsets:
#	150
#	745
#	10463
#	22122
#	40429
#	46724
#	59261
#	72083
#	72783
#	84815
#	96559
#	100235
#	112332
#	124527
#	126861
#	136762
#	154513
#	156411
#	168147
#	170820
#	184287
#	195035
#	211864
#
# Disc length: 2927 seconds
#
# Revision: 0
# Processed by: cddbd v1.5.1PL0 Copyright (c) Steve Scherf et al.
# Submitted via: CDex 1.51
#
DISCID=340b6d17
DTITLE=The Geezinslaws - The Eclectic Horseman
DYEAR=2005
DGENRE=Country
TTITLE0=Ralph and Sammy -Shut Up-
TTITLE1=Put Another Log on the Fire
TTITLE2=Big Harlan Taylor
TTITLE3=Stairway to Heaven
TTITLE4=Elephant Joke
TTITLE5=I Gave Her My Ring
TTITLE6=Doo Wacka Doo
TTITLE7=Better to Us Joke
TTITLE8=My Way
TTITLE9=It's in the Freezer
TTITLE10=Poodie's Bird Joke
TTITLE11=Thank You Miss Audrey (For Breaking Hank's Heart)
TTITLE12=Copenhagen
TTITLE13=Kris's Song for the Slaws Comment
TTITLE14=Jesus Was a Capricorn
TTITLE15=Marilyn and Joe
TTITLE16=Willie's Joke Goldfish
TTITLE17=Twirl
TTITLE18=Chicken and Egg
TTITLE19=Here Comes That Rainbow Again
TTITLE20=If No News is Good News
TTITLE21=Bird Joke
TTITLE22=Band Intro and Pledge
EXTD=YEAR: 2005
EXTT0=
EXTT1=
EXTT2=
EXTT3=
EXTT4=
EXTT5=
EXTT6=
EXTT7=
EXTT8=
EXTT9=
EXTT10=
EXTT11=
EXTT12=
EXTT13=
EXTT14=
EXTT15=
EXTT16=
EXTT17=
EXTT18=
EXTT19=
EXTT20=
EXTT21=
EXTT22=
PLAYORDER=
